PathFileType	4	(X/Y/Z)	..\data\2014022\dynamic\2014022_C5_02.trc
DataRate	CameraRate	NumFrames	NumMarkers	Units	OrigDataRate	OrigDataStartFrame	OrigNumFrames
100.000000	100.000000	4	52	mm	100.000000	126	145
Frame#	Time	L_IAS			L_IPS			R_IPS			R_IAS			L_FTC			L_FLE			L_FME			L_FAX			L_TTC			L_FAL			L_TAM			L_FCC			L_FM1			L_FM2			L_FM5			R_FTC			R_FLE			R_FME			R_FAX			R_TTC			R_FAL			R_TAM			R_FCC			R_FM1			R_FM2			R_FM5			CV7			TV10			SXS			SJN			L_SIA			L_SRS			L_SAA			L_SAE			L_HLE			L_HME			L_UOA			L_RSP			L_UHE			L_HM2			L_HM5			R_SIA			R_SRS			R_SAA			R_SAE			R_HLE			R_HME			R_UOA			R_RSP			R_UHE			R_HM2			R_HM5			
		X1	Y1	Z1	X2	Y2	Z2	X3	Y3	Z3	X4	Y4	Z4	X5	Y5	Z5	X6	Y6	Z6	X7	Y7	Z7	X8	Y8	Z8	X9	Y9	Z9	X10	Y10	Z10	X11	Y11	Z11	X12	Y12	Z12	X13	Y13	Z13	X14	Y14	Z14	X15	Y15	Z15	X16	Y16	Z16	X17	Y17	Z17	X18	Y18	Z18	X19	Y19	Z19	X20	Y20	Z20	X21	Y21	Z21	X22	Y22	Z22	X23	Y23	Z23	X24	Y24	Z24	X25	Y25	Z25	X26	Y26	Z26	X27	Y27	Z27	X28	Y28	Z28	X29	Y29	Z29	X30	Y30	Z30	X31	Y31	Z31	X32	Y32	Z32	X33	Y33	Z33	X34	Y34	Z34	X35	Y35	Z35	X36	Y36	Z36	X37	Y37	Z37	X38	Y38	Z38	X39	Y39	Z39	X40	Y40	Z40	X41	Y41	Z41	X42	Y42	Z42	X43	Y43	Z43	X44	Y44	Z44	X45	Y45	Z45	X46	Y46	Z46	X47	Y47	Z47	X48	Y48	Z48	X49	Y49	Z49	X50	Y50	Z50	X51	Y51	Z51	X52	Y52	Z52	

127	1.26	1762.545654296875	941.860778808594	-390.4174804687501	1570.064697265625	956.138366699219	-319.7460632324219	1575.570190429688	953.138122558594	-209.3578643798829	1761.327514648438	941.0137939453127	-147.4118957519532	1678.82470703125	882.7722167968752	-458.766326904297	1613.964599609375	459.3330993652345	-399.2826538085939	1562.580200195313	467.0306091308595	-270.0098876953126	1575.648681640625	413.2439575195314	-402.0753173828126	1636.142578125	393.556854248047	-335.3296203613282	1518.752319335938	71.71261596679689	-328.1192321777344	1539.39501953125	88.94829559326173	-244.6781463623047	1480.715087890625	26.19000434875489	-279.8039550781251	1662.204467773438	15.29496765136719	-243.9246215820313	1671.573120117188	33.31072998046876	-304.4204406738282	1624.444702148438	20.37962913513184	-354.3339843750001	1683.03564453125	862.4111328125002	-87.81703186035158	1879.691040039063	483.0377197265626	-134.3888549804688	1892.45849609375	484.9992065429689	-268.6025390625001	1862.565063476563	433.0051574707032	-129.4993286132813	1931.880981445313	421.3194274902345	-178.2249450683594	1839.478393554688	86.87991333007814	-152.3152770996094	1859.028076171875	92.32106018066408	-238.3417663574219	1807.07763671875	35.4228630065918	-199.9305267333985	1983.975341796875	41.79737854003907	-226.6308288574219	1985.048583984375	59.81468963623048	-172.1358642578125	1947.665649414063	41.7586784362793	-125.6890563964844	1635.4638671875	1426.949951171875	-306.6691589355469	1553.530151367188	1213.476196289063	-287.7054138183594	1787.125366210938	1145.518310546875	-282.6530456542969	1752.687377929688	1357.677612304688	-301.7986145019532	1547.80419921875	1240.560424804688	-373.0406799316407	1588.345825195313	1377.894287109375	-364.7927856445313	1621.156127929688	1379.859375	-434.8231201171876	1670.875366210938	1364.869873046875	-481.4775695800782	1660.988037109375	1053.595703125	-554.0964965820314	1673.313720703125	1039.161743164063	-466.8144531250001	1663.571166992188	1012.352478027344	-521.5305786132814	1889.96337890625	937.1004638671877	-576.0487670898439	1833.284790039063	886.6975097656252	-577.1925659179689	1959.410400390625	883.2860107421877	-589.5840454101564	1880.343383789063	826.5086059570315	-548.6313476562501	1547.651000976563	1250.278198242188	-204.240707397461	1595.796142578125	1386.282958984375	-229.5428009033204	1629.925170898438	1392.494384765625	-152.6431427001953	1676.074462890625	1396.421508789063	-121.1190414428711	1610.714477539063	1094.706665039063	-36.38582229614259	1646.87451171875	1068.895629882813	-106.2680053710938	1614.638427734375	1065.62353515625	-62.54564666748048	1680.297119140625	897.9089965820315	88.78222656250001	1624.844604492188	878.2783203125002	39.31173324584962	1698.31982421875	810.3710937500002	121.7433853149414	1651.77734375	799.413757324219	29.7929801940918	
128	1.27	1776.533447265625	938.8518676757815	-391.7023010253907	1584.87060546875	952.422058105469	-317.3560485839844	1591.773193359375	949.6480712890627	-207.4435119628907	1778.419311523438	937.981628417969	-148.0901794433594	1690.892944335938	879.927429199219	-458.3811340332032	1621.405151367188	458.3878173828126	-399.2085876464845	1571.655395507813	467.0665588378907	-269.6425170898438	1582.341186523438	413.0279235839845	-401.8003845214845	1642.579833984375	392.247528076172	-335.6131896972657	1519.574829101563	72.49867248535158	-327.5596008300782	1540.515869140625	89.45727539062501	-243.9848175048829	1481.1328125	27.32780647277833	-278.9678649902344	1662.355712890625	15.31505584716797	-243.912094116211	1671.7109375	33.38787078857423	-304.3389892578126	1624.336303710938	20.68941116333008	-354.0315551757813	1703.103881835938	859.6763305664065	-87.09505462646486	1897.990844726563	480.7949523925782	-134.7238922119141	1907.695922851563	481.3296203613282	-269.4747314453126	1883.40087890625	429.5686035156251	-129.8599395751953	1952.670166015625	421.692840576172	-178.9605102539063	1885.564697265625	82.70351409912111	-153.7149353027344	1904.149658203125	90.09982299804689	-239.8049011230469	1856.833618164063	29.5408000946045	-201.6770935058594	2032.108642578125	48.15381622314455	-229.9976654052735	2032.62841796875	65.22621154785158	-175.3415832519532	1997.174926757813	44.20385742187501	-128.769027709961	1651.714111328125	1424.035766601563	-307.2445983886719	1569.619995117188	1210.588623046875	-288.2669677734376	1802.547973632813	1141.178588867188	-283.1711120605469	1768.762329101563	1354.365600585938	-302.0883789062501	1563.855346679688	1237.968139648438	-373.9733581542969	1604.663330078125	1375.135131835938	-365.6111755371094	1637.86767578125	1377.308715820313	-435.4942016601564	1687.878295898438	1362.406494140625	-481.9420776367189	1682.304565429688	1051.015625	-555.8776245117189	1695.278686523438	1036.495239257813	-469.0107727050782	1686.780517578125	1009.594543457031	-523.7130126953126	1916.911376953125	949.0211181640627	-580.9539794921876	1864.052978515625	894.447204589844	-579.0358886718751	1989.620483398438	899.737487792969	-594.6710205078126	1915.50537109375	839.3291015625002	-549.8330688476564	1563.515502929688	1247.306274414063	-204.9974822998047	1611.918334960938	1383.303955078125	-230.3030242919922	1645.833984375	1389.572387695313	-153.2820129394532	1691.832641601563	1393.520874023438	-121.6262512207032	1621.78369140625	1093.165283203125	-34.81819915771485	1659.3408203125	1065.890380859375	-103.1463851928711	1626.061279296875	1063.36669921875	-60.52899551391603	1690.769165039063	899.924255371094	96.0722579956055	1636.941650390625	878.3151855468752	45.60808181762696	1709.511840820313	813.813415527344	131.727767944336	1665.82275390625	799.648132324219	38.76059722900391	
129	1.28	1790.40673828125	935.8499145507815	-393.1491699218751	1599.794555664063	948.5664672851565	-314.7948608398438	1608.117797851563	945.967712402344	-205.5098266601563	1795.666625976563	934.879821777344	-148.8205108642578	1702.768920898438	877.091003417969	-457.776580810547	1629.264526367188	457.466278076172	-399.0562744140626	1581.881713867188	466.8657531738282	-268.9816894531251	1589.427978515625	412.8544921875001	-401.3677062988282	1649.531494140625	390.9204101562501	-335.9992675781251	1520.462280273438	73.46041107177736	-327.0204162597657	1541.713500976563	90.06070709228517	-243.2766723632813	1481.50830078125	28.66721343994141	-278.1495666503907	1662.586791992188	15.35117244720459	-243.8992919921876	1671.864624023438	33.48913574218751	-304.2748413085938	1624.255859375	21.01378059387207	-353.7136230468751	1723.216552734375	856.7187500000002	-86.51918792724611	1915.513427734375	478.0389099121095	-134.9372863769532	1922.147827148438	477.0362243652345	-270.2378845214844	1903.436279296875	425.835174560547	-130.2611083984375	1972.549194335938	421.7018432617189	-179.5431518554688	1930.294921875	79.77468109130861	-155.5441284179688	1947.885498046875	89.00984954833986	-241.6063385009766	1905.183227539063	25.11882209777833	-203.9463958740235	2078.1982421875	55.65580368041994	-233.8941955566407	2078.37939453125	71.75172424316408	-179.0687713623047	2045.087280273438	47.86760330200196	-132.4266662597657	1667.987670898438	1420.994750976563	-307.7594604492188	1585.729614257813	1207.618408203125	-288.7471313476563	1818.040161132813	1136.544921875	-283.6460876464844	1784.904663085938	1350.883544921875	-302.2969055175782	1580.017944335938	1235.263427734375	-374.8413696289063	1621.047607421875	1372.253295898438	-366.3940734863282	1654.698852539063	1374.656982421875	-436.1383056640626	1705.079956054688	1359.835693359375	-482.3313903808595	1703.75390625	1048.451904296875	-557.5186767578126	1717.330444335938	1033.797119140625	-470.9943847656251	1710.035888671875	1006.917724609375	-525.6862182617189	1942.753173828125	960.824401855469	-585.6259765625001	1894.029907226563	902.5667114257815	-580.8926391601564	2018.339111328125	916.2624511718752	-599.6773071289064	1949.358642578125	852.8904418945315	-551.3486328125001	1579.468505859375	1244.2138671875	-205.6423950195313	1628.059204101563	1380.23291015625	-230.9982910156251	1661.796142578125	1386.56982421875	-153.8521270751953	1707.656127929688	1390.51806640625	-122.0811080932617	1633.020629882813	1091.643432617188	-33.20835876464844	1671.771484375	1062.920043945313	-100.0179595947266	1637.006103515625	1061.281860351563	-58.94250869750978	1701.898803710938	901.9846191406252	103.0414276123047	1649.486694335938	878.4197998046877	52.10704803466798	1721.43701171875	817.3337402343752	141.2594451904297	1680.005249023438	799.9710693359377	47.81006622314454	
130	1.29	1804.232177734375	932.9201660156252	-394.7254028320314	1614.8994140625	944.6837158203127	-312.1090698242188	1624.643676757813	942.2114868164065	-203.5685119628907	1813.090209960938	931.792419433594	-149.6182861328125	1714.557739257813	874.3165283203127	-456.9352416992189	1637.534423828125	456.6035156250001	-398.839569091797	1593.099731445313	466.4661865234376	-268.0734863281251	1596.90234375	412.7620239257814	-400.8071899414064	1656.974731445313	389.6005249023439	-336.4567260742188	1521.409912109375	74.63243103027345	-326.5441284179688	1542.965698242188	90.80163574218751	-242.6074981689454	1481.818969726563	30.25617218017579	-277.4018554687501	1662.900390625	15.37012195587159	-243.8897094726563	1672.049194335938	33.60128021240235	-304.2332458496094	1624.221069335938	21.32259941101075	-353.3963928222657	1743.272827148438	853.618103027344	-86.08449554443361	1932.38916015625	474.8819885253907	-135.0976104736328	1935.9794921875	472.3250427246095	-270.9478759765626	1922.729736328125	421.9189453125001	-130.7493743896485	1991.606811523438	421.3887634277345	-180.0599822998047	1973.16650390625	77.9486770629883	-157.7715759277344	1989.752563476563	88.88363647460939	-243.7302703857422	1951.518432617188	22.00174903869629	-206.6809997558594	2121.794921875	63.96842575073244	-238.2854156494141	2121.848388671875	79.07029724121095	-183.2971801757813	2090.889892578125	52.46730422973634	-136.6330108642578	1684.280029296875	1417.889526367188	-308.1948547363282	1601.8818359375	1204.62353515625	-289.1387023925782	1833.640380859375	1131.782958984375	-284.0723266601563	1801.11962890625	1347.323120117188	-302.4219055175782	1596.308959960938	1232.50244140625	-375.6293640136719	1637.490112304688	1369.307861328125	-367.1156311035157	1671.619995117188	1371.962280273438	-436.7260742187501	1722.440307617188	1357.234497070313	-482.6271057128907	1725.25244140625	1045.977905273438	-558.9938354492189	1739.396118164063	1031.148071289063	-472.7403869628907	1733.256958007813	1004.377197265625	-527.4344482421876	1967.480346679688	972.4422607421877	-590.0368041992189	1923.133178710938	910.9970703125002	-582.7587890625001	2045.59033203125	932.7581787109377	-604.5391235351564	1981.851806640625	867.039978027344	-553.1231079101564	1595.5263671875	1241.057495117188	-206.1786346435547	1644.21484375	1377.125732421875	-231.6203613281251	1677.802856445313	1383.534790039063	-154.3382415771485	1723.533447265625	1387.476440429688	-122.4726791381836	1644.499267578125	1090.186645507813	-31.57602691650391	1684.250732421875	1060.060302734375	-96.93216705322268	1647.458862304688	1059.473022460938	-57.88525390625001	1713.643432617188	904.080749511719	109.6728210449219	1662.435302734375	878.6215820312502	58.68932342529298	1733.991943359375	820.8936767578127	150.2890777587891	1694.28857421875	800.4224853515627	56.78710937500001	
